<svg width="138" height="48" viewBox="0 0 138 48" fill="none" xmlns="http://www.w3.org/2000/svg">
<g clip-path="url(#clip0_1_10)">
<path d="M34.9703 0.479048C32.9021 0.479048 31.022 1.34132 29.706 2.87426C28.3899 1.34132 26.4158 0.38324 24.4416 0.38324C20.5874 0.38324 17.3912 3.64072 17.3912 7.56887V18.2994H20.8694V7.56887C20.8694 5.55689 22.4675 4.02396 24.3476 4.02396C26.3218 4.02396 27.8258 5.6527 27.8258 7.56887V18.012L27.9198 18.2994H31.3981V7.56887C31.3981 5.55689 32.9961 4.02396 34.8763 4.02396C36.7564 4.02396 38.3545 5.6527 38.3545 7.56887V18.2994H41.8327V7.56887C42.0207 3.64072 38.8245 0.479048 34.9703 0.479048Z" fill="#005F61"/>
<path d="M131.514 0.670517V11.4011C131.514 13.413 129.916 14.946 128.036 14.946C126.156 14.946 124.557 13.3172 124.557 11.4011V0.957942L124.463 0.670517H120.985V11.4011C120.985 13.413 119.387 14.946 117.507 14.946C115.533 14.946 114.029 13.3172 114.029 11.4011V0.670517H110.551V11.4011C110.551 15.3292 113.747 18.5867 117.601 18.5867C119.669 18.5867 121.549 17.7244 122.865 16.0957C124.181 17.6286 126.156 18.5867 128.13 18.5867C131.984 18.5867 135.18 15.3292 135.18 11.4011V0.670517H131.514Z" fill="#005F61"/>
<path d="M61.0096 0.478867C57.1554 0.478867 53.9592 3.73635 53.9592 7.6645V18.395H57.4374V7.56869C57.4374 5.55671 59.0355 4.02378 60.9156 4.02378C62.8898 4.02378 64.3938 5.65252 64.3938 7.56869V18.2992H67.872V7.56869C68.06 3.64054 64.9579 0.478867 61.0096 0.478867Z" fill="#005F61"/>
<path d="M79.1527 0.478867C75.2985 0.478867 72.1023 3.73635 72.1023 7.6645V18.395H75.5805V7.56869C75.5805 5.55671 77.1786 4.02378 79.0587 4.02378C81.0328 4.02378 82.5369 5.65252 82.5369 7.56869V18.2992H86.0151V7.56869C86.2031 3.64054 83.1009 0.478867 79.1527 0.478867Z" fill="#005F61"/>
<path d="M49.6349 0.766495H46.1567V18.2994H49.6349V0.766495Z" fill="#005F61"/>
<path d="M98.3296 0C93.2533 0 89.2111 4.21557 89.2111 9.29341C89.2111 14.4671 93.3473 18.5868 98.3296 18.5868C103.406 18.5868 107.448 14.3713 107.448 9.29341C107.448 4.21557 103.406 0 98.3296 0ZM98.3296 15.0419C95.2274 15.0419 92.6893 12.4551 92.6893 9.29341C92.6893 6.13174 95.2274 3.54491 98.3296 3.54491C101.432 3.54491 103.97 6.13174 103.97 9.29341C103.97 12.4551 101.432 15.0419 98.3296 15.0419Z" fill="#005F61"/>
<path d="M14.8532 28.4552C32.3382 40.7187 53.5835 48.0001 76.4268 48.0001C99.2701 48.0001 120.515 40.8145 138 28.4552H14.8532Z" fill="#00BFB2"/>
<path d="M0 18.6826V28.4551H15.0409C10.3406 24.8144 5.26431 21.5569 0 18.6826Z" fill="#00BFB2"/>
</g>
<defs>
<clipPath id="clip0_1_10">
<rect width="138" height="48" fill="white"/>
</clipPath>
</defs>
</svg>
